<svg viewBox="0 0 128 128" xmlns="http://www.w3.org/2000/svg" xmlns:xlink="http://www.w3.org/1999/xlink"><radialGradient id="a" cx="-2409.47" cy="-392.07" gradientTransform="matrix(.69 0 0 .79 1781.43 339.43)" gradientUnits="userSpaceOnUse" r="197.62"><stop offset="0" stop-color="#009afd"/><stop offset=".22" stop-color="#0098fd"/><stop offset=".35" stop-color="#008ffd"/><stop offset=".46" stop-color="#0081fd"/><stop offset=".55" stop-color="#006efc"/><stop offset=".6" stop-color="#005ffc"/></radialGradient><linearGradient id="b" gradientUnits="userSpaceOnUse" x1="78.66" x2="42.39" y1="53.08" y2="52.83"><stop offset=".08" stop-opacity="0"/><stop offset=".81"/></linearGradient><linearGradient id="c" gradientUnits="userSpaceOnUse" x1="99.08" x2="87.08" y1="31.21" y2="43.91"><stop offset=".36" stop-color="#baf7fe"/><stop offset=".42" stop-color="#a6f5fe"/><stop offset=".56" stop-color="#74effd"/><stop offset=".74" stop-color="#23e7fb"/><stop offset=".76" stop-color="#1be6fb"/></linearGradient><linearGradient id="d" gradientUnits="userSpaceOnUse" x1="68.09" x2="37.97" y1="42.4" y2="42.4"><stop offset="0" stop-color="#01e3fb"/><stop offset=".23" stop-color="#01c5f7"/><stop offset=".51" stop-color="#01a6f3"/><stop offset=".75" stop-color="#0193f1"/><stop offset=".92" stop-color="#018cf0"/></linearGradient><linearGradient id="e" gradientUnits="userSpaceOnUse" x1="64.79" x2="38.89" y1="61.8" y2="61.8"><stop offset="0" stop-color="#01dffa"/><stop offset=".16" stop-color="#01c8f7"/><stop offset=".41" stop-color="#01a9f3"/><stop offset=".63" stop-color="#0196f1"/><stop offset=".78" stop-color="#018ff0"/></linearGradient><path d="m0 0h128v128h-128z" fill="#fff"/><path d="m87.91 32.27h-33.63l-1.49 9.73c-.12.82-.26 1.7-.4 2.65h1.14a5.13 5.13 0 0 1 3.92 1.76 7 7 0 0 1 1.43 5.73 9.53 9.53 0 0 1 -2.71 5.3 7.18 7.18 0 0 1 -4.84 2.19c0 .6.06 1.18.1 1.77.11 1.52.27 3 .48 4.4 3.16 21.15 17.12 30 17.12 30s25.73-13.63 31.72-47.6c.1-.58.2-1.17.29-1.76 2.16-14.17-13.13-14.17-13.13-14.17zm-4.46 29.19-.11.67a2.12 2.12 0 0 1 -1.91 1.87h-13.57a1.48 1.48 0 0 1 -1.34-1.87l.11-.67a2.12 2.12 0 0 1 1.9-1.87h13.58a1.49 1.49 0 0 1 1.34 1.87zm7.4-8.46a2.78 2.78 0 0 1 -.79 1.56 2.13 2.13 0 0 1 -1.46.65h-19.11a1.75 1.75 0 0 1 -1.57-2.21 2.89 2.89 0 0 1 .8-1.56 2.14 2.14 0 0 1 1.45-.64h19.11a1.74 1.74 0 0 1 1.57 2.2z" fill="url(#a)"/><path d="m67.92 53a1.75 1.75 0 0 0 1.57 2.21h8.21v4.4h-26.37a7.18 7.18 0 0 0 4.84-2.19 9.53 9.53 0 0 0 2.71-5.3 7 7 0 0 0 -1.43-5.73h20.25v4.41h-7.53a2.14 2.14 0 0 0 -1.45.64 2.89 2.89 0 0 0 -.8 1.56z" fill="url(#b)" opacity=".2"/><path d="m58.93 63.56a2.81 2.81 0 0 1 -.79 1.56 2.14 2.14 0 0 1 -1.46.64h-4.77c-.21-1.41-.37-2.88-.48-4.4h5.93a1.74 1.74 0 0 1 1.57 2.2z" opacity=".1"/><path d="m68 44.17a2.81 2.81 0 0 1 -.79 1.56 2.18 2.18 0 0 1 -1.46.64h-8.3a5.13 5.13 0 0 0 -3.92-1.76h-1.14c.14-1 .28-1.83.4-2.65h13.65a1.74 1.74 0 0 1 1.56 2.21z" opacity=".1"/><path d="m101 46.37c-.09.59-.19 1.18-.29 1.76h-16.4c-2.11 0-3.53-2-3.15-4.4l.84-5.51a11 11 0 0 0 -.49-5.95h6.4s15.29 0 13.09 14.1z" opacity=".1"/><path d="m52.05 54.3h-23.7a1.73 1.73 0 0 1 -1.57-2.2 2.5 2.5 0 0 1 2.22-2.2h23.72a1.74 1.74 0 0 1 1.58 2.2 2.5 2.5 0 0 1 -2.25 2.2z" fill="#01e3fb"/><path d="m46.79 73.7h-9.17a1.74 1.74 0 0 1 -1.57-2.21 2.5 2.5 0 0 1 2.24-2.2h9.18a1.74 1.74 0 0 1 1.53 2.2 2.51 2.51 0 0 1 -2.21 2.21z" fill="#01e3fb"/><path d="m87.91 32.27h-6.12c1.69 0 2.64 2.77 2.12 6.17l-.68 4.41c-.3 1.94.83 3.52 2.52 3.52h15.25c2.2-14.1-13.09-14.1-13.09-14.1z" fill="url(#c)"/><path d="m67.29 44.61h-31.29a1.74 1.74 0 0 1 -1.57-2.21 2.5 2.5 0 0 1 2.25-2.2h31.32a1.74 1.74 0 0 1 1.57 2.2 2.51 2.51 0 0 1 -2.28 2.21z" fill="url(#d)"/><path d="m58.21 64h-14.52a1.74 1.74 0 0 1 -1.58-2.2 2.52 2.52 0 0 1 2.25-2.21h14.53a1.74 1.74 0 0 1 1.57 2.21 2.51 2.51 0 0 1 -2.25 2.2z" fill="url(#e)"/></svg>