<?xml version="1.0" encoding="UTF-8" standalone="no"?>
<!DOCTYPE svg PUBLIC "-//W3C//DTD SVG 1.1//EN" "http://www.w3.org/Graphics/SVG/1.1/DTD/svg11.dtd">
<svg width="100%" height="100%" viewBox="0 0 14 14" version="1.1" xmlns="http://www.w3.org/2000/svg" xmlns:xlink="http://www.w3.org/1999/xlink" xml:space="preserve" xmlns:serif="http://www.serif.com/" style="fill-rule:evenodd;clip-rule:evenodd;stroke-linejoin:round;stroke-miterlimit:2;">
    <g transform="matrix(1,0,0,1,-1456.05,-2718.07)">
        <g transform="matrix(1,0,0,1,590,2240)">
            <g transform="matrix(0.294981,0,0,0.294647,734.474,739.255)">
                <g transform="matrix(-1.68585,-8.1708e-16,1.50946e-16,-1.68585,675.316,-776.864)">
                    <path d="M136,48.2C136,42.019 130.987,37 124.813,37L119.187,37C113.013,37 108,42.019 108,48.2L108,53.8C108,59.981 113.013,65 119.187,65L124.813,65C130.987,65 136,59.981 136,53.8L136,48.2Z" style="fill:rgb(18,180,131);"/>
                </g>
                <g transform="matrix(1.20778,0,0,1.21145,-96.4528,-133.436)">
                    <g transform="matrix(0.369289,0.369289,-0.707107,0.707107,-157.84,-315.308)">
                        <path d="M469.642,-641.5C469.642,-642.328 468.355,-643 466.769,-643L445.872,-643C444.287,-643 443,-642.328 443,-641.5L443,-638.5C443,-637.672 444.287,-637 445.872,-637L466.769,-637C468.355,-637 469.642,-637.672 469.642,-638.5L469.642,-641.5Z" style="fill:white;"/>
                    </g>
                    <g transform="matrix(0.556965,-0.556965,0.707107,0.707107,669.792,104.902)">
                        <path d="M469.642,-641.5C469.642,-642.328 468.788,-643 467.737,-643L444.904,-643C443.853,-643 443,-642.328 443,-641.5L443,-638.5C443,-637.672 443.853,-637 444.904,-637L467.737,-637C468.788,-637 469.642,-637.672 469.642,-638.5L469.642,-641.5Z" style="fill:white;"/>
                    </g>
                </g>
                <g transform="matrix(3.39005,0,0,3.39389,-4489.47,-10110.6)">
                    <path d="M1460.69,2724.11L1463.59,2727L1462.15,2723.07L1460.69,2724.11" style="fill:rgb(18,180,131);"/>
                </g>
            </g>
        </g>
    </g>
</svg>
