<?xml version="1.0" encoding="UTF-8" standalone="no"?><!DOCTYPE svg PUBLIC "-//W3C//DTD SVG 1.1//EN" "http://www.w3.org/Graphics/SVG/1.1/DTD/svg11.dtd"><svg width="100%" height="100%" viewBox="0 0 680 114" version="1.1" xmlns="http://www.w3.org/2000/svg" xmlns:xlink="http://www.w3.org/1999/xlink" xml:space="preserve" xmlns:serif="http://www.serif.com/" style="fill-rule:evenodd;clip-rule:evenodd;stroke-linejoin:round;stroke-miterlimit:2;"><g><path d="M158.022,37.168l-22.876,0l-0,-13.481l62.296,0l0,13.481l-22.876,0l0,58.007l-16.544,0l0,-58.007Z" style="fill:#3b404b;fill-rule:nonzero;"/><path d="M217.357,47.483c1.94,-2.655 4.493,-4.698 7.761,-6.025c3.166,-1.328 6.945,-2.043 11.132,-2.043l0,14.706c-1.736,-0.102 -2.962,-0.204 -3.575,-0.204c-4.595,-0 -8.17,1.225 -10.722,3.778c-2.554,2.553 -3.881,6.434 -3.881,11.54l-0,25.94l-15.932,0l0,-54.943l15.217,0l-0,7.251Z" style="fill:#3b404b;fill-rule:nonzero;"/><path d="M298.444,40.232l0,54.943l-15.114,0l-0,-6.536c-2.145,2.349 -4.596,4.187 -7.558,5.413c-2.961,1.328 -6.127,1.94 -9.497,1.94c-7.251,0 -12.97,-2.042 -17.157,-6.229c-4.187,-4.188 -6.332,-10.315 -6.332,-18.485l-0,-31.046l15.932,0l-0,28.697c-0,8.885 3.676,13.276 11.131,13.276c3.779,0 6.843,-1.225 9.191,-3.778c2.349,-2.451 3.472,-6.128 3.472,-11.03l0,-27.165l15.932,0Z" style="fill:#3b404b;fill-rule:nonzero;"/><path d="M328.673,95.992c-4.596,0 -8.987,-0.612 -13.378,-1.736c-4.392,-1.123 -7.864,-2.451 -10.417,-4.187l5.31,-11.438c2.452,1.532 5.413,2.859 8.885,3.779c3.472,1.021 6.843,1.531 10.213,1.531c6.74,0 10.11,-1.633 10.11,-5.004c0,-1.532 -0.919,-2.655 -2.757,-3.37c-1.839,-0.715 -4.698,-1.225 -8.477,-1.736c-4.493,-0.715 -8.17,-1.43 -11.131,-2.349c-2.962,-0.919 -5.413,-2.451 -7.558,-4.697c-2.246,-2.247 -3.268,-5.413 -3.268,-9.6c0,-3.472 1.022,-6.536 3.064,-9.294c1.941,-2.655 4.902,-4.697 8.783,-6.229c3.779,-1.532 8.374,-2.247 13.583,-2.247c3.88,0 7.761,0.408 11.642,1.225c3.778,0.92 6.944,2.043 9.498,3.575l-5.311,11.336c-4.8,-2.758 -10.11,-4.085 -15.829,-4.085c-3.37,-0 -5.924,0.51 -7.66,1.429c-1.736,0.92 -2.553,2.145 -2.553,3.677c0,1.736 0.919,2.859 2.758,3.574c1.838,0.715 4.8,1.328 8.782,1.941c4.494,0.715 8.17,1.532 11.03,2.348c2.859,0.92 5.31,2.452 7.455,4.698c2.145,2.247 3.166,5.413 3.166,9.396c-0,3.37 -1.021,6.434 -3.064,9.089c-2.042,2.655 -5.004,4.698 -8.885,6.127c-3.983,1.533 -8.578,2.247 -13.991,2.247Z" style="fill:#3b404b;fill-rule:nonzero;"/><path d="M396.791,92.52c-1.532,1.123 -3.473,2.043 -5.719,2.553c-2.349,0.613 -4.698,0.919 -7.251,0.919c-6.536,0 -11.541,-1.634 -15.217,-5.004c-3.472,-3.37 -5.31,-8.272 -5.31,-14.706l-0,-22.569l-8.477,-0l0,-12.255l8.477,-0l-0,-13.379l15.931,0l0,13.379l13.685,-0l0,12.255l-13.685,-0l0,22.365c0,2.349 0.613,4.085 1.838,5.31c1.124,1.328 2.86,1.941 5.004,1.941c2.554,-0 4.698,-0.715 6.434,-2.043l4.29,11.234Z" style="fill:#3b404b;fill-rule:nonzero;"/><path d="M402.715,40.232l15.931,0l-0,54.943l-15.931,0l-0,-54.943Zm7.965,-7.66c-2.961,0 -5.31,-0.817 -7.148,-2.552c-1.839,-1.737 -2.758,-3.779 -2.758,-6.333c0,-2.552 0.919,-4.595 2.758,-6.331c1.838,-1.736 4.187,-2.553 7.148,-2.553c2.962,-0 5.311,0.817 7.149,2.451c1.838,1.634 2.759,3.676 2.759,6.127c-0,2.656 -0.921,4.8 -2.759,6.536c-1.838,1.736 -4.187,2.655 -7.149,2.655Z" style="fill:#3b404b;fill-rule:nonzero;"/><path d="M463.788,39.415c6.841,0 12.354,2.043 16.541,6.128c4.188,4.085 6.229,10.11 6.229,18.178l0,31.454l-15.929,0l0,-29.003c0,-4.392 -0.921,-7.66 -2.862,-9.805c-1.938,-2.144 -4.696,-3.165 -8.271,-3.165c-3.983,-0 -7.25,1.225 -9.6,3.676c-2.35,2.553 -3.575,6.23 -3.575,11.132l-0,27.165l-15.929,0l-0,-54.943l15.216,0l0,6.434c2.142,-2.349 4.696,-4.085 7.863,-5.413c3.167,-1.225 6.537,-1.838 10.317,-1.838Z" style="fill:#3b404b;fill-rule:nonzero;"/><path d="M553.858,19.398l0,75.777l-15.216,0l-0,-6.332c-3.984,4.8 -9.7,7.149 -17.154,7.149c-5.209,0 -9.909,-1.123 -13.992,-3.472c-4.188,-2.349 -7.558,-5.617 -9.909,-9.906c-2.345,-4.289 -3.575,-9.294 -3.575,-14.91c0,-5.617 1.23,-10.622 3.575,-14.911c2.351,-4.289 5.721,-7.557 9.909,-9.906c4.083,-2.349 8.783,-3.472 13.992,-3.472c7.045,0 12.458,2.247 16.441,6.638l0,-26.655l15.929,0Zm-29.616,63.522c3.983,0 7.354,-1.43 10.008,-4.187c2.658,-2.757 3.983,-6.434 3.983,-11.029c0,-4.596 -1.325,-8.273 -3.983,-11.132c-2.654,-2.757 -6.025,-4.085 -10.008,-4.085c-4.084,0 -7.455,1.328 -10.109,4.085c-2.654,2.859 -3.983,6.536 -3.983,11.132c0,4.595 1.329,8.272 3.983,11.029c2.654,2.757 6.025,4.187 10.109,4.187Z" style="fill:#3b404b;fill-rule:nonzero;"/><path d="M619.321,67.908c-0,0.204 -0.1,1.634 -0.304,4.289l-41.567,0c0.717,3.37 2.554,6.128 5.313,8.068c2.754,1.94 6.229,2.962 10.416,2.962c2.858,-0 5.413,-0.409 7.658,-1.328c2.146,-0.817 4.188,-2.145 6.125,-3.983l8.48,9.192c-5.209,5.922 -12.767,8.884 -22.671,8.884c-6.234,0 -11.646,-1.225 -16.446,-3.676c-4.796,-2.349 -8.475,-5.719 -11.029,-10.008c-2.55,-4.29 -3.879,-9.192 -3.879,-14.604c-0,-5.413 1.329,-10.213 3.879,-14.502c2.554,-4.392 6.025,-7.762 10.416,-10.111c4.496,-2.451 9.5,-3.676 15.013,-3.676c5.412,0 10.212,1.123 14.604,3.472c4.392,2.349 7.763,5.617 10.317,10.008c2.45,4.29 3.675,9.294 3.675,15.013Zm-28.492,-16.442c-3.575,-0 -6.637,1.021 -9.087,3.064c-2.455,2.042 -3.984,4.799 -4.496,8.374l27.062,-0c-0.508,-3.473 -2.041,-6.23 -4.491,-8.374c-2.45,-2.043 -5.413,-3.064 -8.988,-3.064Z" style="fill:#3b404b;fill-rule:nonzero;"/><path d="M661.804,95.175l-12.05,-16.85l-12.458,16.85l-17.363,0l21.142,-27.676l-20.425,-27.267l17.871,0l11.641,16.033l11.951,-16.033l16.954,0l-20.425,26.859l21.241,28.084l-18.079,0Z" style="fill:#3b404b;fill-rule:nonzero;"/><g><circle cx="56.942" cy="56.942" r="56.942" style="fill:#2aa8d7;"/><path d="M54.686,55.275l21.292,-21.347c1.585,-1.585 4.157,-1.585 5.742,0l5.743,5.763c1.586,1.585 1.586,4.176 -0,5.761l-28.396,28.423c-0.081,0.116 -0.17,0.232 -0.263,0.31l-5.746,5.761c-0.793,0.774 -1.841,1.199 -2.885,1.199c-1.044,0 -2.088,-0.425 -2.885,-1.199l-5.743,-5.761c-0.092,-0.078 -0.181,-0.194 -0.262,-0.31l-14.862,-14.888c-1.585,-1.586 -1.585,-4.138 0,-5.723l5.743,-5.762c1.586,-1.586 4.161,-1.586 5.746,-0l11.254,11.253l1.016,1.006l11.505,11.407l-6.999,-15.893Z" style="fill:#fff;"/></g></g></svg>