<?xml version="1.0" encoding="utf-8" standalone="no"?><svg id="Layer_1" data-name="Layer 1" xmlns="http://www.w3.org/2000/svg" viewBox="0 0 3354.11 713.5"><defs><style>.cls-1{fill:#34e0a1;}</style></defs><title>Tripadvisor</title><path d="M3335.26,476.77a18.85,18.85,0,1,0,18.85,18.85A18.87,18.87,0,0,0,3335.26,476.77Zm0,34.72a15.86,15.86,0,1,1,15.9-15.86A15.88,15.88,0,0,1,3335.26,511.48Zm6.14-19.09c0-3.43-2.43-5.46-6-5.46h-6v17.18h2.95v-6.22h3.23l3.11,6.22h3.19l-3.43-6.86A5,5,0,0,0,3341.4,492.39Zm-6.14,2.83h-2.91v-5.7h2.91c2,0,3.19,1,3.19,2.83S3337.21,495.22,3335.26,495.22ZM1063.51,286v-45.6H993.59V511.64h69.91V349c0-29.46,18.89-43.93,48.35-43.93h38.27V240.36h-32.69C1091.85,240.36,1069.61,253.71,1063.51,286Zm152.11-152.9c-23.92,0-42.25,18.89-42.25,42.81a42.25,42.25,0,1,0,84.5,0C1257.87,151.95,1239.53,133.05,1215.61,133.05Zm-34.88,378.59h69.76V240.36h-69.76V511.64Zm402-135.64a140.23,140.23,0,0,1-140.23,140.23,134.92,134.92,0,0,1-82.31-27.54v102.6h-69.76V240.36h69.76v23a134.92,134.92,0,0,1,82.31-27.54A140.22,140.22,0,0,1,1582.77,376Zm-70.19,0a76.17,76.17,0,1,0-76.17,76.17A76.19,76.19,0,0,0,1512.57,376Zm1282.58-23.8L2754.46,341c-26.78-7-37.19-15.19-37.19-29.34,0-13.79,14.67-23.44,35.64-23.44,20,0,35.64,13.07,35.64,29.82v1.55h64.29v-1.55c0-49.23-40.14-82.31-99.93-82.31-59.19,0-102.2,33-102.2,78.6,0,35.44,23.48,62.14,64.45,73.22l39,10.64c29.61,8.21,40.62,17.3,40.62,33.6,0,17.18-15.9,28.74-39.58,28.74-24.67,0-41.29-15.63-41.29-38.82V420.2h-68.24v1.55c0,55.64,44.8,94.55,109,94.55,61.82,0,106.71-38,106.71-90.28C2861.32,400.35,2849.84,366.79,2795.15,352.2ZM1830.22,240.36H1900V511.64h-69.75v-23a134.92,134.92,0,0,1-82.31,27.54,140.23,140.23,0,0,1,0-280.46,134.92,134.92,0,0,1,82.31,27.54v-23Zm0,135.64h0A76.17,76.17,0,1,0,1754,452.17,76.17,76.17,0,0,0,1830.22,376Zm321.63-232.18h69.76V511.68h-69.76v-23a134.92,134.92,0,0,1-82.31,27.54,140.23,140.23,0,1,1,0-280.46,134.92,134.92,0,0,1,82.31,27.54V143.81Zm0,232.18a76.17,76.17,0,1,0-76.17,76.17A76.2,76.2,0,0,0,2151.85,376Zm393.62,135.64h69.75V240.36h-69.75V511.64Zm34.88-378.59c-23.92,0-42.25,18.89-42.25,42.81a42.25,42.25,0,1,0,84.5,0C2622.6,151.95,2604.26,133.05,2580.35,133.05ZM3162.82,376a140.23,140.23,0,1,1-140.23-140.23A140.23,140.23,0,0,1,3162.82,376Zm-64.05,0a76.17,76.17,0,1,0-76.17,76.17A76.2,76.2,0,0,0,3098.77,376Zm-2071-232.18H760.21V206h99.05V511.64h69.52V206h99.05V143.81h0ZM2381,437.34l-62.06-197h-73.26l93.07,271.29h83.95l93.63-271.29h-73.26ZM3265,286v-45.6h-69.91V511.64H3265V349c0-29.46,18.9-43.93,48.35-43.93h38.27V240.36H3319C3293.36,240.36,3271.16,253.71,3265,286Z" transform="translate(0 0)"/><circle class="cls-1" cx="356.75" cy="356.75" r="356.75"/><path d="M577.09,287.15l43-46.84H524.68a298.26,298.26,0,0,0-335.54,0H93.43l43,46.84a131.59,131.59,0,1,0,178.1,193.76l42.17,45.92L398.92,481A131.63,131.63,0,1,0,577.09,287.15ZM225.17,473.46a89,89,0,1,1,89-89A89,89,0,0,1,225.17,473.46Zm131.62-91.64c0-58.6-42.61-108.9-98.85-130.38a256.91,256.91,0,0,1,197.67,0C399.4,273,356.79,323.23,356.79,381.82Zm131.58,91.64a89,89,0,1,1,89-89A89,89,0,0,1,488.37,473.46Zm0-135.76A46.68,46.68,0,1,0,535,384.37,46.66,46.66,0,0,0,488.37,337.69ZM271.85,384.41a46.68,46.68,0,1,1-46.68-46.68A46.66,46.66,0,0,1,271.85,384.41Z" transform="translate(0 0)"/></svg>