<?xml version="1.0" encoding="UTF-8" standalone="no"?><svg version="1.1" id="Layer_1" xmlns="http://www.w3.org/2000/svg" xmlns:xlink="http://www.w3.org/1999/xlink" x="0px" y="0px" viewBox="0 0 3354.1 713.5" style="enable-background:new 0 0 3354.1 713.5;" xml:space="preserve"><style type="text/css">.st0{fill:#FFFFFF;}.st1{fill:#34E0A1;}</style><path class="st0" d="M3335.3,476.8c-10.4,0-18.8,8.4-18.8,18.9s8.4,18.8,18.9,18.8c10.4,0,18.8-8.4,18.8-18.8C3354.1,485.2,3345.7,476.8,3335.3,476.8z M3335.3,511.5c-8.8,0-15.8-7.1-15.8-15.9c0-8.8,7.1-15.8,15.9-15.8c8.7,0,15.8,7.1,15.8,15.9C3351.1,504.4,3344,511.5,3335.3,511.5L3335.3,511.5z M3341.4,492.4c0-3.4-2.4-5.5-6-5.5h-6v17.2h2.9v-6.2h3.2l3.1,6.2h3.2l-3.4-6.9C3340.4,496.4,3341.5,494.5,3341.4,492.4L3341.4,492.4z M3335.3,495.2h-2.9v-5.7h2.9c2,0,3.2,1,3.2,2.8S3337.2,495.2,3335.3,495.2L3335.3,495.2z M1063.5,286v-45.6h-69.9v271.2h69.9V349c0-29.5,18.9-43.9,48.3-43.9h38.3v-64.7h-32.7C1091.8,240.4,1069.6,253.7,1063.5,286z M1215.6,133.1c-23.9,0-42.3,18.9-42.3,42.8c0,23.3,18.9,42.3,42.3,42.3s42.3-18.9,42.3-42.3C1257.9,151.9,1239.5,133.1,1215.6,133.1L1215.6,133.1z M1180.7,511.7h69.8V240.4h-69.8V511.7L1180.7,511.7z M1582.7,376c0,77.4-62.8,140.2-140.2,140.2c-29.7,0.1-58.7-9.5-82.3-27.5v102.6h-69.8v-351h69.8v23c23.7-18,52.6-27.7,82.3-27.5C1520,235.8,1582.7,298.6,1582.7,376L1582.7,376L1582.7,376z M1512.6,376c0-42.1-34.1-76.2-76.2-76.2c-42.1,0-76.2,34.1-76.2,76.2s34.1,76.2,76.2,76.2C1478.5,452.2,1512.6,418.1,1512.6,376C1512.6,376,1512.6,376,1512.6,376L1512.6,376z M2795.1,352.3l-40.7-11.3c-26.8-7-37.2-15.2-37.2-29.3c0-13.8,14.7-23.4,35.6-23.4c20,0,35.6,13.1,35.6,29.8v1.5h64.3V318c0-49.2-40.1-82.3-99.9-82.3c-59.2,0-102.2,33-102.2,78.6c0,35.4,23.5,62.1,64.4,73.2l39,10.6c29.6,8.2,40.6,17.3,40.6,33.6c0,17.2-15.9,28.7-39.6,28.7c-24.7,0-41.3-15.6-41.3-38.8v-1.5h-68.2v1.5c0,55.6,44.8,94.5,109,94.5c61.8,0,106.7-38,106.7-90.3C2861.3,400.4,2849.8,366.8,2795.1,352.3L2795.1,352.3z M1830.2,240.4h69.8v271.3h-69.8v-23c-23.7,18-52.6,27.7-82.3,27.5c-77.4,0-140.2-62.8-140.2-140.2s62.8-140.2,140.2-140.2c29.7-0.1,58.7,9.5,82.3,27.5L1830.2,240.4L1830.2,240.4z M1830.2,376L1830.2,376c0-42.1-34.1-76.2-76.2-76.2c-42.1,0-76.2,34.1-76.2,76.2c0,42,34.1,76.1,76.1,76.2C1796.1,452.2,1830.2,418.1,1830.2,376C1830.2,376,1830.2,376,1830.2,376z M2151.9,143.8h69.8v367.9h-69.8v-23c-23.7,18-52.6,27.7-82.3,27.5c-77.4,0-140.2-62.8-140.2-140.2s62.8-140.2,140.2-140.2c29.7-0.1,58.7,9.5,82.3,27.5V143.8L2151.9,143.8z M2151.9,376c0-42.1-34.1-76.2-76.2-76.2c-42.1,0-76.2,34.1-76.2,76.2s34.1,76.2,76.2,76.2l0,0C2117.7,452.2,2151.8,418.1,2151.9,376z M2545.5,511.6h69.8V240.4h-69.8V511.6z M2580.4,133.1c-23.9,0-42.3,18.9-42.3,42.8c0,23.3,18.9,42.3,42.3,42.3s42.3-18.9,42.3-42.3C2622.6,151.9,2604.3,133.1,2580.4,133.1L2580.4,133.1z M3162.8,376c0,77.4-62.8,140.2-140.2,140.2c-77.4,0-140.2-62.8-140.2-140.2s62.8-140.2,140.2-140.2l0,0C3100,235.8,3162.8,298.6,3162.8,376z	M3098.8,376c0-42.1-34.1-76.2-76.2-76.2c-42.1,0-76.2,34.1-76.2,76.2s34.1,76.2,76.2,76.2l0,0C3064.7,452.2,3098.8,418.1,3098.8,376z M1027.8,143.8H760.2V206h99v305.6h69.5V206h99.1L1027.8,143.8L1027.8,143.8L1027.8,143.8z	M2381,437.3l-62.1-197h-73.3l93.1,271.3h83.9l93.6-271.3h-73.3L2381,437.3z M3265,286v-45.6h-69.9v271.2h69.9V349c0-29.5,18.9-43.9,48.4-43.9h38.3v-64.7H3319C3293.4,240.4,3271.2,253.7,3265,286z"/><circle class="st1" cx="356.8" cy="356.8" r="356.8"/><path d="M577.1,287.1l43-46.8h-95.4c-101.2-68.9-234.3-68.9-335.5,0H93.4l43,46.8c-53.7,49-57.6,132.2-8.6,185.9s132.2,57.6,185.9,8.6c0.3-0.2,0.5-0.5,0.8-0.7l42.2,45.9l42.2-45.8c53.5,49.2,136.8,45.7,186-7.8C634.1,419.6,630.6,336.4,577.1,287.1z M225.2,473.5c-49.2,0-89-39.8-89-89s39.8-89,89-89s89,39.8,89,89l0,0C314.2,433.6,274.3,473.5,225.2,473.5z M356.8,381.8c0-58.6-42.6-108.9-98.9-130.4c63.3-26.4,134.4-26.4,197.7,0C399.4,273,356.8,323.2,356.8,381.8L356.8,381.8z M488.4,473.5c-49.2,0-89-39.8-89-89s39.8-89,89-89s89,39.8,89,89S537.5,473.5,488.4,473.5L488.4,473.5z M488.4,337.7c-25.8,0-46.7,20.8-46.7,46.6c0,25.8,20.8,46.7,46.6,46.7s46.7-20.8,46.7-46.6c0,0,0,0,0-0.1C535,358.6,514.1,337.7,488.4,337.7L488.4,337.7z M271.9,384.4c0,25.8-20.9,46.7-46.7,46.7c-25.8,0-46.7-20.9-46.7-46.7c0-25.8,20.9-46.7,46.7-46.7h0C250.9,337.7,271.8,358.6,271.9,384.4C271.9,384.4,271.9,384.4,271.9,384.4z"/></svg>